<svg xmlns="http://www.w3.org/2000/svg" xmlns:xlink="http://www.w3.org/1999/xlink" id="Layer_1" width="15.203" height="14.156" x="0" y="0" enable-background="new 0 0 15.203 14.156" version="1.1" viewBox="0 0 15.203 14.156" xml:space="preserve"><path fill="#33669A" fill-rule="evenodd" d="M14.102,6.054H3.36l4.182-4.225c0.396-0.4,0.396-1.049,0-1.45	c-0.396-0.4-1.039-0.4-1.435,0L0.366,6.179C0.123,6.425,0.047,6.761,0.103,7.08c-0.056,0.318,0.02,0.655,0.263,0.9l5.741,5.799	c0.396,0.4,1.039,0.4,1.435,0c0.396-0.4,0.396-1.05,0-1.45L3.36,8.104h10.742c0.561,0,1.015-0.459,1.015-1.025	C15.117,6.513,14.663,6.054,14.102,6.054z" clip-rule="evenodd"/></svg>