<svg xmlns="http://www.w3.org/2000/svg" xmlns:xlink="http://www.w3.org/1999/xlink" id="Layer_1" x="0" y="0" version="1.1" viewBox="0 0 13 13" xml:space="preserve" style="enable-background:new 0 0 13 13"><style type="text/css">.st0{fill:#dbba2c}</style><path d="M6.5,0C2.9,0,0,2.9,0,6.5C0,10.1,2.9,13,6.5,13c3.6,0,6.5-2.9,6.5-6.5C13,2.9,10.1,0,6.5,0z M6.5,10.3	c-0.7,0-1.3-0.6-1.3-1.3c0-0.7,0.6-1.3,1.3-1.3c0.7,0,1.3,0.6,1.3,1.3C7.8,9.7,7.2,10.3,6.5,10.3z M7.3,7H5.7L5.2,3.2	c0-0.3,0.2-0.5,0.4-0.5h1.7c0.2,0,0.4,0.2,0.4,0.5L7.3,7z" class="st0"/></svg>